<mxfile host="app.diagrams.net" modified="2022-04-20T17:34:43.487Z" agent="5.0 (Windows NT 10.0; Win64; x64) AppleWebKit/537.36 (KHTML, like Gecko) Chrome/100.0.4896.127 Safari/537.36" etag="tK__QZ110vjpvZsEqw_8" version="16.6.4" type="github">
  <diagram id="pu7OBY0T-dTTLoNB5tpp" name="Page-1">
    <mxGraphModel dx="2249" dy="1963" grid="1" gridSize="10" guides="1" tooltips="1" connect="1" arrows="1" fold="1" page="1" pageScale="1" pageWidth="827" pageHeight="1169" math="0" shadow="0">
      <root>
        <mxCell id="0" />
        <mxCell id="1" parent="0" />
        <mxCell id="MmlX9dhvUAhJ-k3f0yzA-3" value="aws(seoul-region)" style="points=[[0,0],[0.25,0],[0.5,0],[0.75,0],[1,0],[1,0.25],[1,0.5],[1,0.75],[1,1],[0.75,1],[0.5,1],[0.25,1],[0,1],[0,0.75],[0,0.5],[0,0.25]];outlineConnect=0;gradientColor=none;html=1;whiteSpace=wrap;fontSize=12;fontStyle=0;container=1;pointerEvents=0;collapsible=0;recursiveResize=0;shape=mxgraph.aws4.group;grIcon=mxgraph.aws4.group_aws_cloud_alt;strokeColor=#232F3E;fillColor=none;verticalAlign=top;align=left;spacingLeft=30;fontColor=#232F3E;dashed=0;" parent="1" vertex="1">
          <mxGeometry x="40" y="-160" width="1097" height="640" as="geometry" />
        </mxCell>
        <mxCell id="MmlX9dhvUAhJ-k3f0yzA-1" value="Public subnet" style="points=[[0,0],[0.25,0],[0.5,0],[0.75,0],[1,0],[1,0.25],[1,0.5],[1,0.75],[1,1],[0.75,1],[0.5,1],[0.25,1],[0,1],[0,0.75],[0,0.5],[0,0.25]];outlineConnect=0;gradientColor=none;html=1;whiteSpace=wrap;fontSize=12;fontStyle=0;container=1;pointerEvents=0;collapsible=0;recursiveResize=0;shape=mxgraph.aws4.group;grIcon=mxgraph.aws4.group_security_group;grStroke=0;strokeColor=#248814;fillColor=#E9F3E6;verticalAlign=top;align=left;spacingLeft=30;fontColor=#248814;dashed=0;" parent="MmlX9dhvUAhJ-k3f0yzA-3" vertex="1">
          <mxGeometry x="70" y="80" width="250" height="220" as="geometry" />
        </mxCell>
        <mxCell id="MmlX9dhvUAhJ-k3f0yzA-2" value="Private subnet" style="points=[[0,0],[0.25,0],[0.5,0],[0.75,0],[1,0],[1,0.25],[1,0.5],[1,0.75],[1,1],[0.75,1],[0.5,1],[0.25,1],[0,1],[0,0.75],[0,0.5],[0,0.25]];outlineConnect=0;gradientColor=none;html=1;whiteSpace=wrap;fontSize=12;fontStyle=0;container=1;pointerEvents=0;collapsible=0;recursiveResize=0;shape=mxgraph.aws4.group;grIcon=mxgraph.aws4.group_security_group;grStroke=0;strokeColor=#147EBA;fillColor=#E6F2F8;verticalAlign=top;align=left;spacingLeft=30;fontColor=#147EBA;dashed=0;" parent="MmlX9dhvUAhJ-k3f0yzA-3" vertex="1">
          <mxGeometry x="354" y="80" width="176" height="220" as="geometry" />
        </mxCell>
        <mxCell id="MmlX9dhvUAhJ-k3f0yzA-4" value="VPC" style="points=[[0,0],[0.25,0],[0.5,0],[0.75,0],[1,0],[1,0.25],[1,0.5],[1,0.75],[1,1],[0.75,1],[0.5,1],[0.25,1],[0,1],[0,0.75],[0,0.5],[0,0.25]];outlineConnect=0;gradientColor=none;html=1;whiteSpace=wrap;fontSize=12;fontStyle=0;container=1;pointerEvents=0;collapsible=0;recursiveResize=0;shape=mxgraph.aws4.group;grIcon=mxgraph.aws4.group_vpc;strokeColor=#248814;fillColor=none;verticalAlign=top;align=left;spacingLeft=30;fontColor=#AAB7B8;dashed=0;" parent="MmlX9dhvUAhJ-k3f0yzA-3" vertex="1">
          <mxGeometry x="40" y="40" width="980" height="580" as="geometry" />
        </mxCell>
        <mxCell id="vb2DgiX3VQOyqlKnQRCR-3" value="" style="outlineConnect=0;dashed=0;verticalLabelPosition=bottom;verticalAlign=top;align=center;html=1;shape=mxgraph.aws3.instance;fillColor=#F58534;gradientColor=none;" parent="MmlX9dhvUAhJ-k3f0yzA-4" vertex="1">
          <mxGeometry x="380" y="118.5" width="60" height="63" as="geometry" />
        </mxCell>
        <mxCell id="vb2DgiX3VQOyqlKnQRCR-4" value="WEB" style="text;html=1;align=center;verticalAlign=middle;resizable=0;points=[];autosize=1;strokeColor=none;fillColor=none;" parent="MmlX9dhvUAhJ-k3f0yzA-4" vertex="1">
          <mxGeometry x="390" y="140" width="40" height="20" as="geometry" />
        </mxCell>
        <mxCell id="vb2DgiX3VQOyqlKnQRCR-6" value="Private subnet" style="points=[[0,0],[0.25,0],[0.5,0],[0.75,0],[1,0],[1,0.25],[1,0.5],[1,0.75],[1,1],[0.75,1],[0.5,1],[0.25,1],[0,1],[0,0.75],[0,0.5],[0,0.25]];outlineConnect=0;gradientColor=none;html=1;whiteSpace=wrap;fontSize=12;fontStyle=0;container=1;pointerEvents=0;collapsible=0;recursiveResize=0;shape=mxgraph.aws4.group;grIcon=mxgraph.aws4.group_security_group;grStroke=0;strokeColor=#147EBA;fillColor=#E6F2F8;verticalAlign=top;align=left;spacingLeft=30;fontColor=#147EBA;dashed=0;" parent="MmlX9dhvUAhJ-k3f0yzA-4" vertex="1">
          <mxGeometry x="540" y="41.5" width="176" height="220" as="geometry" />
        </mxCell>
        <mxCell id="vb2DgiX3VQOyqlKnQRCR-5" value="" style="outlineConnect=0;dashed=0;verticalLabelPosition=bottom;verticalAlign=top;align=center;html=1;shape=mxgraph.aws3.instance;fillColor=#F58534;gradientColor=none;" parent="vb2DgiX3VQOyqlKnQRCR-6" vertex="1">
          <mxGeometry x="58" y="77" width="60" height="63" as="geometry" />
        </mxCell>
        <mxCell id="vb2DgiX3VQOyqlKnQRCR-7" value="WAS" style="text;html=1;align=center;verticalAlign=middle;resizable=0;points=[];autosize=1;strokeColor=none;fillColor=none;" parent="vb2DgiX3VQOyqlKnQRCR-6" vertex="1">
          <mxGeometry x="68" y="100" width="40" height="20" as="geometry" />
        </mxCell>
        <mxCell id="vb2DgiX3VQOyqlKnQRCR-8" value="Public subnet" style="points=[[0,0],[0.25,0],[0.5,0],[0.75,0],[1,0],[1,0.25],[1,0.5],[1,0.75],[1,1],[0.75,1],[0.5,1],[0.25,1],[0,1],[0,0.75],[0,0.5],[0,0.25]];outlineConnect=0;gradientColor=none;html=1;whiteSpace=wrap;fontSize=12;fontStyle=0;container=1;pointerEvents=0;collapsible=0;recursiveResize=0;shape=mxgraph.aws4.group;grIcon=mxgraph.aws4.group_security_group;grStroke=0;strokeColor=#248814;fillColor=#E9F3E6;verticalAlign=top;align=left;spacingLeft=30;fontColor=#248814;dashed=0;" parent="MmlX9dhvUAhJ-k3f0yzA-4" vertex="1">
          <mxGeometry x="43" y="330" width="250" height="220" as="geometry" />
        </mxCell>
        <mxCell id="vb2DgiX3VQOyqlKnQRCR-9" value="Private subnet" style="points=[[0,0],[0.25,0],[0.5,0],[0.75,0],[1,0],[1,0.25],[1,0.5],[1,0.75],[1,1],[0.75,1],[0.5,1],[0.25,1],[0,1],[0,0.75],[0,0.5],[0,0.25]];outlineConnect=0;gradientColor=none;html=1;whiteSpace=wrap;fontSize=12;fontStyle=0;container=1;pointerEvents=0;collapsible=0;recursiveResize=0;shape=mxgraph.aws4.group;grIcon=mxgraph.aws4.group_security_group;grStroke=0;strokeColor=#147EBA;fillColor=#E6F2F8;verticalAlign=top;align=left;spacingLeft=30;fontColor=#147EBA;dashed=0;" parent="MmlX9dhvUAhJ-k3f0yzA-4" vertex="1">
          <mxGeometry x="322" y="330" width="176" height="220" as="geometry" />
        </mxCell>
        <mxCell id="vb2DgiX3VQOyqlKnQRCR-23" value="" style="outlineConnect=0;dashed=0;verticalLabelPosition=bottom;verticalAlign=top;align=center;html=1;shape=mxgraph.aws3.instance;fillColor=#F58534;gradientColor=none;" parent="vb2DgiX3VQOyqlKnQRCR-9" vertex="1">
          <mxGeometry x="58" y="90" width="60" height="63" as="geometry" />
        </mxCell>
        <mxCell id="vb2DgiX3VQOyqlKnQRCR-24" value="WEB" style="text;html=1;align=center;verticalAlign=middle;resizable=0;points=[];autosize=1;strokeColor=none;fillColor=none;" parent="vb2DgiX3VQOyqlKnQRCR-9" vertex="1">
          <mxGeometry x="68" y="111.5" width="40" height="20" as="geometry" />
        </mxCell>
        <mxCell id="vb2DgiX3VQOyqlKnQRCR-28" value="elb" style="text;html=1;align=center;verticalAlign=middle;resizable=0;points=[];autosize=1;strokeColor=none;fillColor=none;" parent="vb2DgiX3VQOyqlKnQRCR-9" vertex="1">
          <mxGeometry x="118" width="30" height="20" as="geometry" />
        </mxCell>
        <mxCell id="vb2DgiX3VQOyqlKnQRCR-10" value="Private subnet" style="points=[[0,0],[0.25,0],[0.5,0],[0.75,0],[1,0],[1,0.25],[1,0.5],[1,0.75],[1,1],[0.75,1],[0.5,1],[0.25,1],[0,1],[0,0.75],[0,0.5],[0,0.25]];outlineConnect=0;gradientColor=none;html=1;whiteSpace=wrap;fontSize=12;fontStyle=0;container=1;pointerEvents=0;collapsible=0;recursiveResize=0;shape=mxgraph.aws4.group;grIcon=mxgraph.aws4.group_security_group;grStroke=0;strokeColor=#147EBA;fillColor=#E6F2F8;verticalAlign=top;align=left;spacingLeft=30;fontColor=#147EBA;dashed=0;" parent="MmlX9dhvUAhJ-k3f0yzA-4" vertex="1">
          <mxGeometry x="540" y="330" width="176" height="220" as="geometry" />
        </mxCell>
        <mxCell id="vb2DgiX3VQOyqlKnQRCR-25" value="" style="outlineConnect=0;dashed=0;verticalLabelPosition=bottom;verticalAlign=top;align=center;html=1;shape=mxgraph.aws3.instance;fillColor=#F58534;gradientColor=none;" parent="vb2DgiX3VQOyqlKnQRCR-10" vertex="1">
          <mxGeometry x="58" y="68.5" width="60" height="63" as="geometry" />
        </mxCell>
        <mxCell id="vb2DgiX3VQOyqlKnQRCR-26" value="WAS" style="text;html=1;align=center;verticalAlign=middle;resizable=0;points=[];autosize=1;strokeColor=none;fillColor=none;" parent="vb2DgiX3VQOyqlKnQRCR-10" vertex="1">
          <mxGeometry x="68" y="91.5" width="40" height="20" as="geometry" />
        </mxCell>
        <mxCell id="vb2DgiX3VQOyqlKnQRCR-11" value="Private subnet" style="points=[[0,0],[0.25,0],[0.5,0],[0.75,0],[1,0],[1,0.25],[1,0.5],[1,0.75],[1,1],[0.75,1],[0.5,1],[0.25,1],[0,1],[0,0.75],[0,0.5],[0,0.25]];outlineConnect=0;gradientColor=none;html=1;whiteSpace=wrap;fontSize=12;fontStyle=0;container=1;pointerEvents=0;collapsible=0;recursiveResize=0;shape=mxgraph.aws4.group;grIcon=mxgraph.aws4.group_security_group;grStroke=0;strokeColor=#147EBA;fillColor=#E6F2F8;verticalAlign=top;align=left;spacingLeft=30;fontColor=#147EBA;dashed=0;" parent="MmlX9dhvUAhJ-k3f0yzA-4" vertex="1">
          <mxGeometry x="753" y="40" width="176" height="220" as="geometry" />
        </mxCell>
        <mxCell id="vb2DgiX3VQOyqlKnQRCR-15" value="" style="outlineConnect=0;dashed=0;verticalLabelPosition=bottom;verticalAlign=top;align=center;html=1;shape=mxgraph.aws3.rds_db_instance;fillColor=#2E73B8;gradientColor=none;" parent="vb2DgiX3VQOyqlKnQRCR-11" vertex="1">
          <mxGeometry x="64" y="85" width="49.5" height="66" as="geometry" />
        </mxCell>
        <mxCell id="vb2DgiX3VQOyqlKnQRCR-17" value="RDS" style="text;html=1;align=center;verticalAlign=middle;resizable=0;points=[];autosize=1;strokeColor=none;fillColor=none;" parent="vb2DgiX3VQOyqlKnQRCR-11" vertex="1">
          <mxGeometry x="68.75" y="160" width="40" height="20" as="geometry" />
        </mxCell>
        <mxCell id="vb2DgiX3VQOyqlKnQRCR-12" value="Private subnet" style="points=[[0,0],[0.25,0],[0.5,0],[0.75,0],[1,0],[1,0.25],[1,0.5],[1,0.75],[1,1],[0.75,1],[0.5,1],[0.25,1],[0,1],[0,0.75],[0,0.5],[0,0.25]];outlineConnect=0;gradientColor=none;html=1;whiteSpace=wrap;fontSize=12;fontStyle=0;container=1;pointerEvents=0;collapsible=0;recursiveResize=0;shape=mxgraph.aws4.group;grIcon=mxgraph.aws4.group_security_group;grStroke=0;strokeColor=#147EBA;fillColor=#E6F2F8;verticalAlign=top;align=left;spacingLeft=30;fontColor=#147EBA;dashed=0;" parent="MmlX9dhvUAhJ-k3f0yzA-4" vertex="1">
          <mxGeometry x="753" y="330" width="176" height="220" as="geometry" />
        </mxCell>
        <mxCell id="vb2DgiX3VQOyqlKnQRCR-16" value="" style="outlineConnect=0;dashed=0;verticalLabelPosition=bottom;verticalAlign=top;align=center;html=1;shape=mxgraph.aws3.rds_db_instance_standby_multi_az;fillColor=#2E73B8;gradientColor=none;" parent="vb2DgiX3VQOyqlKnQRCR-12" vertex="1">
          <mxGeometry x="64" y="77" width="49.5" height="66" as="geometry" />
        </mxCell>
        <mxCell id="vb2DgiX3VQOyqlKnQRCR-18" value="RDS" style="text;html=1;align=center;verticalAlign=middle;resizable=0;points=[];autosize=1;strokeColor=none;fillColor=none;" parent="vb2DgiX3VQOyqlKnQRCR-12" vertex="1">
          <mxGeometry x="68" y="160" width="40" height="20" as="geometry" />
        </mxCell>
        <mxCell id="vb2DgiX3VQOyqlKnQRCR-13" value="" style="outlineConnect=0;dashed=0;verticalLabelPosition=bottom;verticalAlign=top;align=center;html=1;shape=mxgraph.aws3.vpc_nat_gateway;fillColor=#F58534;gradientColor=none;" parent="MmlX9dhvUAhJ-k3f0yzA-4" vertex="1">
          <mxGeometry x="89" y="119" width="69" height="72" as="geometry" />
        </mxCell>
        <mxCell id="vb2DgiX3VQOyqlKnQRCR-14" value="NAT gateway" style="text;html=1;align=center;verticalAlign=middle;resizable=0;points=[];autosize=1;strokeColor=none;fillColor=none;" parent="MmlX9dhvUAhJ-k3f0yzA-4" vertex="1">
          <mxGeometry x="78.5" y="200" width="90" height="20" as="geometry" />
        </mxCell>
        <mxCell id="vb2DgiX3VQOyqlKnQRCR-19" value="" style="edgeStyle=orthogonalEdgeStyle;html=1;endArrow=block;elbow=vertical;startArrow=block;startFill=1;endFill=1;strokeColor=#545B64;rounded=0;entryX=0.5;entryY=0.98;entryDx=0;entryDy=0;entryPerimeter=0;exitX=0.5;exitY=0.01;exitDx=0;exitDy=0;exitPerimeter=0;" parent="MmlX9dhvUAhJ-k3f0yzA-4" source="vb2DgiX3VQOyqlKnQRCR-16" target="vb2DgiX3VQOyqlKnQRCR-15" edge="1">
          <mxGeometry width="100" relative="1" as="geometry">
            <mxPoint x="513" y="330" as="sourcePoint" />
            <mxPoint x="613" y="330" as="targetPoint" />
          </mxGeometry>
        </mxCell>
        <mxCell id="vb2DgiX3VQOyqlKnQRCR-20" value="" style="outlineConnect=0;dashed=0;verticalLabelPosition=bottom;verticalAlign=top;align=center;html=1;shape=mxgraph.aws3.virtual_private_cloud;fillColor=#F58534;gradientColor=none;" parent="MmlX9dhvUAhJ-k3f0yzA-4" vertex="1">
          <mxGeometry x="-30" y="263" width="79.5" height="54" as="geometry" />
        </mxCell>
        <mxCell id="vb2DgiX3VQOyqlKnQRCR-21" value="" style="outlineConnect=0;dashed=0;verticalLabelPosition=bottom;verticalAlign=top;align=center;html=1;shape=mxgraph.aws3.application_load_balancer;fillColor=#F58534;gradientColor=none;" parent="MmlX9dhvUAhJ-k3f0yzA-4" vertex="1">
          <mxGeometry x="153" y="254" width="69" height="72" as="geometry" />
        </mxCell>
        <mxCell id="vb2DgiX3VQOyqlKnQRCR-22" value="" style="outlineConnect=0;dashed=0;verticalLabelPosition=bottom;verticalAlign=top;align=center;html=1;shape=mxgraph.aws3.application_load_balancer;fillColor=#F58534;gradientColor=none;" parent="MmlX9dhvUAhJ-k3f0yzA-4" vertex="1">
          <mxGeometry x="420" y="258" width="69" height="72" as="geometry" />
        </mxCell>
        <mxCell id="vb2DgiX3VQOyqlKnQRCR-27" value="elb" style="text;html=1;align=center;verticalAlign=middle;resizable=0;points=[];autosize=1;strokeColor=none;fillColor=none;" parent="MmlX9dhvUAhJ-k3f0yzA-4" vertex="1">
          <mxGeometry x="172.5" y="326" width="30" height="20" as="geometry" />
        </mxCell>
        <mxCell id="vb2DgiX3VQOyqlKnQRCR-30" value="" style="edgeStyle=orthogonalEdgeStyle;html=1;endArrow=block;elbow=vertical;startArrow=none;endFill=1;strokeColor=#545B64;rounded=0;exitX=0.855;exitY=0.145;exitDx=0;exitDy=0;exitPerimeter=0;entryX=0.5;entryY=1;entryDx=0;entryDy=0;entryPerimeter=0;" parent="MmlX9dhvUAhJ-k3f0yzA-4" source="vb2DgiX3VQOyqlKnQRCR-21" target="vb2DgiX3VQOyqlKnQRCR-3" edge="1">
          <mxGeometry width="100" relative="1" as="geometry">
            <mxPoint x="530" y="330" as="sourcePoint" />
            <mxPoint x="630" y="330" as="targetPoint" />
          </mxGeometry>
        </mxCell>
        <mxCell id="vb2DgiX3VQOyqlKnQRCR-31" value="" style="edgeStyle=orthogonalEdgeStyle;html=1;endArrow=block;elbow=vertical;startArrow=none;endFill=1;strokeColor=#545B64;rounded=0;exitX=0.855;exitY=0.855;exitDx=0;exitDy=0;exitPerimeter=0;entryX=0.5;entryY=0;entryDx=0;entryDy=0;entryPerimeter=0;" parent="MmlX9dhvUAhJ-k3f0yzA-4" source="vb2DgiX3VQOyqlKnQRCR-21" target="vb2DgiX3VQOyqlKnQRCR-23" edge="1">
          <mxGeometry width="100" relative="1" as="geometry">
            <mxPoint x="190" y="300" as="sourcePoint" />
            <mxPoint x="290" y="300" as="targetPoint" />
          </mxGeometry>
        </mxCell>
        <mxCell id="vb2DgiX3VQOyqlKnQRCR-33" value="" style="edgeStyle=orthogonalEdgeStyle;html=1;endArrow=block;elbow=vertical;startArrow=none;endFill=1;strokeColor=#545B64;rounded=0;exitX=0.95;exitY=0.95;exitDx=0;exitDy=0;exitPerimeter=0;entryX=0.5;entryY=0;entryDx=0;entryDy=0;entryPerimeter=0;" parent="MmlX9dhvUAhJ-k3f0yzA-4" source="vb2DgiX3VQOyqlKnQRCR-3" target="vb2DgiX3VQOyqlKnQRCR-22" edge="1">
          <mxGeometry width="100" relative="1" as="geometry">
            <mxPoint x="190" y="300" as="sourcePoint" />
            <mxPoint x="290" y="300" as="targetPoint" />
          </mxGeometry>
        </mxCell>
        <mxCell id="vb2DgiX3VQOyqlKnQRCR-32" value="" style="edgeStyle=orthogonalEdgeStyle;html=1;endArrow=block;elbow=vertical;startArrow=none;endFill=1;strokeColor=#545B64;rounded=0;exitX=0.95;exitY=0.05;exitDx=0;exitDy=0;exitPerimeter=0;entryX=0.855;entryY=0.855;entryDx=0;entryDy=0;entryPerimeter=0;" parent="MmlX9dhvUAhJ-k3f0yzA-4" source="vb2DgiX3VQOyqlKnQRCR-23" target="vb2DgiX3VQOyqlKnQRCR-22" edge="1">
          <mxGeometry width="100" relative="1" as="geometry">
            <mxPoint x="190" y="300" as="sourcePoint" />
            <mxPoint x="455" y="350" as="targetPoint" />
          </mxGeometry>
        </mxCell>
        <mxCell id="vb2DgiX3VQOyqlKnQRCR-39" value="" style="edgeStyle=orthogonalEdgeStyle;html=1;endArrow=block;elbow=vertical;startArrow=none;endFill=1;strokeColor=#545B64;rounded=0;entryX=0.5;entryY=0;entryDx=0;entryDy=0;entryPerimeter=0;exitX=1;exitY=0.5;exitDx=0;exitDy=0;exitPerimeter=0;" parent="MmlX9dhvUAhJ-k3f0yzA-4" source="vb2DgiX3VQOyqlKnQRCR-22" target="vb2DgiX3VQOyqlKnQRCR-25" edge="1">
          <mxGeometry width="100" relative="1" as="geometry">
            <mxPoint x="410" y="300" as="sourcePoint" />
            <mxPoint x="510" y="300" as="targetPoint" />
          </mxGeometry>
        </mxCell>
        <mxCell id="vb2DgiX3VQOyqlKnQRCR-38" value="" style="edgeStyle=orthogonalEdgeStyle;html=1;endArrow=block;elbow=vertical;startArrow=none;endFill=1;strokeColor=#545B64;rounded=0;entryX=0.5;entryY=1;entryDx=0;entryDy=0;entryPerimeter=0;exitX=0.855;exitY=0.145;exitDx=0;exitDy=0;exitPerimeter=0;" parent="MmlX9dhvUAhJ-k3f0yzA-4" source="vb2DgiX3VQOyqlKnQRCR-22" target="vb2DgiX3VQOyqlKnQRCR-5" edge="1">
          <mxGeometry width="100" relative="1" as="geometry">
            <mxPoint x="410" y="300" as="sourcePoint" />
            <mxPoint x="510" y="300" as="targetPoint" />
          </mxGeometry>
        </mxCell>
        <mxCell id="MmlX9dhvUAhJ-k3f0yzA-6" value="" style="outlineConnect=0;dashed=0;verticalLabelPosition=bottom;verticalAlign=top;align=center;html=1;shape=mxgraph.aws3.rds;fillColor=#2E73B8;gradientColor=none;" parent="1" vertex="1">
          <mxGeometry x="551" y="740" width="72" height="81" as="geometry" />
        </mxCell>
        <mxCell id="MmlX9dhvUAhJ-k3f0yzA-7" value="Amazon RDS" style="text;html=1;align=center;verticalAlign=middle;resizable=0;points=[];autosize=1;strokeColor=none;fillColor=none;" parent="1" vertex="1">
          <mxGeometry x="542" y="830" width="90" height="20" as="geometry" />
        </mxCell>
        <mxCell id="MmlX9dhvUAhJ-k3f0yzA-8" value="" style="outlineConnect=0;dashed=0;verticalLabelPosition=bottom;verticalAlign=top;align=center;html=1;shape=mxgraph.aws3.api_gateway;fillColor=#D9A741;gradientColor=none;" parent="1" vertex="1">
          <mxGeometry x="260" y="734" width="76.5" height="93" as="geometry" />
        </mxCell>
        <mxCell id="MmlX9dhvUAhJ-k3f0yzA-9" value="" style="outlineConnect=0;dashed=0;verticalLabelPosition=bottom;verticalAlign=top;align=center;html=1;shape=mxgraph.aws3.lambda;fillColor=#F58534;gradientColor=none;" parent="1" vertex="1">
          <mxGeometry x="390" y="734" width="76.5" height="93" as="geometry" />
        </mxCell>
        <mxCell id="MmlX9dhvUAhJ-k3f0yzA-10" value="" style="outlineConnect=0;dashed=0;verticalLabelPosition=bottom;verticalAlign=top;align=center;html=1;shape=mxgraph.aws3.s3;fillColor=#E05243;gradientColor=none;" parent="1" vertex="1">
          <mxGeometry x="120" y="630" width="76.5" height="93" as="geometry" />
        </mxCell>
        <mxCell id="MmlX9dhvUAhJ-k3f0yzA-11" value="" style="outlineConnect=0;dashed=0;verticalLabelPosition=bottom;verticalAlign=top;align=center;html=1;shape=mxgraph.aws3.cloudfront;fillColor=#F58536;gradientColor=none;" parent="1" vertex="1">
          <mxGeometry x="120" y="810" width="76.5" height="93" as="geometry" />
        </mxCell>
        <mxCell id="MmlX9dhvUAhJ-k3f0yzA-12" value="" style="edgeStyle=orthogonalEdgeStyle;html=1;endArrow=block;elbow=vertical;startArrow=none;endFill=1;strokeColor=#545B64;rounded=0;" parent="1" edge="1">
          <mxGeometry width="100" relative="1" as="geometry">
            <mxPoint x="20" y="860" as="sourcePoint" />
            <mxPoint x="110" y="860" as="targetPoint" />
            <Array as="points">
              <mxPoint x="90" y="860" />
              <mxPoint x="90" y="860" />
            </Array>
          </mxGeometry>
        </mxCell>
        <mxCell id="MmlX9dhvUAhJ-k3f0yzA-13" value="Actor" style="shape=umlActor;verticalLabelPosition=bottom;verticalAlign=top;html=1;outlineConnect=0;" parent="1" vertex="1">
          <mxGeometry x="-20" y="830" width="30" height="60" as="geometry" />
        </mxCell>
        <mxCell id="MmlX9dhvUAhJ-k3f0yzA-15" value="Amazon Cloudfront" style="text;html=1;align=center;verticalAlign=middle;resizable=0;points=[];autosize=1;strokeColor=none;fillColor=none;" parent="1" vertex="1">
          <mxGeometry x="98.25" y="910" width="120" height="20" as="geometry" />
        </mxCell>
        <mxCell id="MmlX9dhvUAhJ-k3f0yzA-16" value="Amazon S3" style="text;html=1;align=center;verticalAlign=middle;resizable=0;points=[];autosize=1;strokeColor=none;fillColor=none;" parent="1" vertex="1">
          <mxGeometry x="116.5" y="730" width="80" height="20" as="geometry" />
        </mxCell>
        <mxCell id="MmlX9dhvUAhJ-k3f0yzA-17" value="" style="edgeStyle=orthogonalEdgeStyle;html=1;endArrow=block;elbow=vertical;startArrow=none;endFill=1;strokeColor=#545B64;rounded=0;entryX=0.531;entryY=1.15;entryDx=0;entryDy=0;entryPerimeter=0;" parent="1" target="MmlX9dhvUAhJ-k3f0yzA-16" edge="1">
          <mxGeometry width="100" relative="1" as="geometry">
            <mxPoint x="159.25" y="810" as="sourcePoint" />
            <mxPoint x="159.25" y="770" as="targetPoint" />
            <Array as="points">
              <mxPoint x="159" y="770" />
              <mxPoint x="159" y="770" />
            </Array>
          </mxGeometry>
        </mxCell>
        <mxCell id="MmlX9dhvUAhJ-k3f0yzA-19" value="static content" style="text;html=1;align=center;verticalAlign=middle;resizable=0;points=[];autosize=1;strokeColor=none;fillColor=none;" parent="1" vertex="1">
          <mxGeometry x="75" y="760" width="90" height="20" as="geometry" />
        </mxCell>
        <mxCell id="MmlX9dhvUAhJ-k3f0yzA-20" value="" style="edgeStyle=orthogonalEdgeStyle;html=1;endArrow=block;elbow=vertical;startArrow=none;endFill=1;strokeColor=#545B64;rounded=0;exitX=1;exitY=0.5;exitDx=0;exitDy=0;exitPerimeter=0;" parent="1" source="MmlX9dhvUAhJ-k3f0yzA-11" edge="1">
          <mxGeometry width="100" relative="1" as="geometry">
            <mxPoint x="30" y="870" as="sourcePoint" />
            <mxPoint x="250" y="780" as="targetPoint" />
            <Array as="points">
              <mxPoint x="230" y="857" />
              <mxPoint x="230" y="780" />
            </Array>
          </mxGeometry>
        </mxCell>
        <mxCell id="MmlX9dhvUAhJ-k3f0yzA-21" value="dynamic content" style="text;html=1;align=center;verticalAlign=middle;resizable=0;points=[];autosize=1;strokeColor=none;fillColor=none;" parent="1" vertex="1">
          <mxGeometry x="170" y="801" width="100" height="20" as="geometry" />
        </mxCell>
        <mxCell id="MmlX9dhvUAhJ-k3f0yzA-22" value="Amazon API Gateway" style="text;html=1;align=center;verticalAlign=middle;resizable=0;points=[];autosize=1;strokeColor=none;fillColor=none;" parent="1" vertex="1">
          <mxGeometry x="233.25" y="830" width="130" height="20" as="geometry" />
        </mxCell>
        <mxCell id="MmlX9dhvUAhJ-k3f0yzA-23" value="Amazon Lambda" style="text;html=1;align=center;verticalAlign=middle;resizable=0;points=[];autosize=1;strokeColor=none;fillColor=none;" parent="1" vertex="1">
          <mxGeometry x="373.25" y="830" width="110" height="20" as="geometry" />
        </mxCell>
        <mxCell id="MmlX9dhvUAhJ-k3f0yzA-24" value="" style="edgeStyle=orthogonalEdgeStyle;html=1;endArrow=block;elbow=vertical;startArrow=none;endFill=1;strokeColor=#545B64;rounded=0;entryX=0;entryY=0.5;entryDx=0;entryDy=0;entryPerimeter=0;" parent="1" source="MmlX9dhvUAhJ-k3f0yzA-8" target="MmlX9dhvUAhJ-k3f0yzA-9" edge="1">
          <mxGeometry width="100" relative="1" as="geometry">
            <mxPoint x="270" y="880" as="sourcePoint" />
            <mxPoint x="370" y="880" as="targetPoint" />
          </mxGeometry>
        </mxCell>
        <mxCell id="MmlX9dhvUAhJ-k3f0yzA-26" value="" style="edgeStyle=orthogonalEdgeStyle;html=1;endArrow=block;elbow=vertical;startArrow=none;endFill=1;strokeColor=#545B64;rounded=0;exitX=1;exitY=0.5;exitDx=0;exitDy=0;exitPerimeter=0;" parent="1" source="MmlX9dhvUAhJ-k3f0yzA-9" edge="1">
          <mxGeometry width="100" relative="1" as="geometry">
            <mxPoint x="270" y="880" as="sourcePoint" />
            <mxPoint x="550" y="781" as="targetPoint" />
          </mxGeometry>
        </mxCell>
        <mxCell id="vb2DgiX3VQOyqlKnQRCR-29" value="" style="edgeStyle=orthogonalEdgeStyle;html=1;endArrow=block;elbow=vertical;startArrow=none;endFill=1;strokeColor=#545B64;rounded=0;exitX=0.95;exitY=0.5;exitDx=0;exitDy=0;exitPerimeter=0;" parent="1" source="vb2DgiX3VQOyqlKnQRCR-20" edge="1">
          <mxGeometry width="100" relative="1" as="geometry">
            <mxPoint x="610" y="210" as="sourcePoint" />
            <mxPoint x="230" y="170" as="targetPoint" />
          </mxGeometry>
        </mxCell>
      </root>
    </mxGraphModel>
  </diagram>
</mxfile>
